<?xml version="1.0" encoding="UTF-8"?>
<svg viewBox="-115 -130 440 680" fill="none" xmlns="http://www.w3.org/2000/svg">
  <style>
    
    @keyframes cube0 {
      0%, 0% {
        transform: translate(0.0px, -600.0px) rotate(0.0deg) scale(1.00);
        opacity: 0.3;
      }
      35.7%, 100% {
        transform: translate(0.0px, 0.0px) rotate(0.0deg) scale(1.00);
        opacity: 1;
      }
    }
    @keyframes cube1 {
      0%, 8.6% {
        transform: translate(0.0px, -680.0px) rotate(0.0deg) scale(1.00);
        opacity: 0.3;
      }
      44.3%, 100% {
        transform: translate(0.0px, 0.0px) rotate(0.0deg) scale(1.00);
        opacity: 1;
      }
    }
    @keyframes cube2 {
      0%, 17.1% {
        transform: translate(0.0px, -760.0px) rotate(0.0deg) scale(1.00);
        opacity: 0.3;
      }
      52.9%, 100% {
        transform: translate(0.0px, 0.0px) rotate(0.0deg) scale(1.00);
        opacity: 1;
      }
    }
    @keyframes cube3 {
      0%, 25.7% {
        transform: translate(0.0px, -840.0px) rotate(0.0deg) scale(1.00);
        opacity: 0.3;
      }
      61.4%, 100% {
        transform: translate(0.0px, 0.0px) rotate(0.0deg) scale(1.00);
        opacity: 1;
      }
    }
    @keyframes cube4 {
      0%, 34.3% {
        transform: translate(0.0px, -920.0px) rotate(0.0deg) scale(1.00);
        opacity: 0.3;
      }
      70%, 100% {
        transform: translate(0.0px, 0.0px) rotate(0.0deg) scale(1.00);
        opacity: 1;
      }
    }
    @keyframes cube5 {
      0%, 42.9% {
        transform: translate(0.0px, -1000.0px) rotate(0.0deg) scale(1.00);
        opacity: 0.3;
      }
      78.6%, 100% {
        transform: translate(0.0px, 0.0px) rotate(0.0deg) scale(1.00);
        opacity: 1;
      }
    }
    
    .cube-0 {
      animation: cube0 1.40s cubic-bezier(0.65, 0, 0.35, 1) infinite alternate;
      transform-origin: center;
    }
    .cube-1 {
      animation: cube1 1.40s cubic-bezier(0.65, 0, 0.35, 1) infinite alternate;
      transform-origin: center;
    }
    .cube-2 {
      animation: cube2 1.40s cubic-bezier(0.65, 0, 0.35, 1) infinite alternate;
      transform-origin: center;
    }
    .cube-3 {
      animation: cube3 1.40s cubic-bezier(0.65, 0, 0.35, 1) infinite alternate;
      transform-origin: center;
    }
    .cube-4 {
      animation: cube4 1.40s cubic-bezier(0.65, 0, 0.35, 1) infinite alternate;
      transform-origin: center;
    }
    .cube-5 {
      animation: cube5 1.40s cubic-bezier(0.65, 0, 0.35, 1) infinite alternate;
      transform-origin: center;
    }
  </style>
  <g class="cube-0">
    <path d="M103.923 300 L207.846 360 L207.846 480 L103.923 420 Z" fill="#FFFFFF" stroke="#01A1FF" stroke-width="10" stroke-linejoin="round"/>
    <path d="M311.769 300 L207.846 360 L207.846 480 L311.769 420 Z" fill="#01A1FF" stroke="#01A1FF" stroke-width="10" stroke-linejoin="round"/>
    <path d="M207.846 240 L311.769 300 L207.846 360 L103.923 300 Z" fill="#FFFFFF" stroke="#01A1FF" stroke-width="10" stroke-linejoin="round"/>
  </g>
  <g class="cube-1">
    <path d="M0 360 L103.923 420 L103.923 540 L0 480 Z" fill="#FFFFFF" stroke="#01A1FF" stroke-width="10" stroke-linejoin="round"/>
    <path d="M207.846 360 L103.923 420 L103.923 540 L207.846 480 Z" fill="#01A1FF" stroke="#01A1FF" stroke-width="10" stroke-linejoin="round"/>
    <path d="M103.923 300 L207.846 360 L103.923 420 L0 360 Z" fill="#FFFFFF" stroke="#01A1FF" stroke-width="10" stroke-linejoin="round"/>
  </g>
  <g class="cube-2">
    <path d="M103.923 -60 L207.846 0 L207.846 120 L103.923 60 Z" fill="#FFFFFF" stroke="#01A1FF" stroke-width="10" stroke-linejoin="round"/>
    <path d="M311.769 -60 L207.846 0 L207.846 120 L311.769 60 Z" fill="#01A1FF" stroke="#01A1FF" stroke-width="10" stroke-linejoin="round"/>
    <path d="M207.846 -120 L311.769 -60 L207.846 0 L103.923 -60 Z" fill="#FFFFFF" stroke="#01A1FF" stroke-width="10" stroke-linejoin="round"/>
  </g>
  <g class="cube-3">
    <path d="M-103.923 300 L0 360 L0 480 L-103.923 420 Z" fill="#FFFFFF" stroke="#01A1FF" stroke-width="10" stroke-linejoin="round"/>
    <path d="M103.923 300 L0 360 L0 480 L103.923 420 Z" fill="#01A1FF" stroke="#01A1FF" stroke-width="10" stroke-linejoin="round"/>
    <path d="M0 240 L103.923 300 L0 360 L-103.923 300 Z" fill="#FFFFFF" stroke="#01A1FF" stroke-width="10" stroke-linejoin="round"/>
  </g>
  <g class="cube-4">
    <path d="M0 0 L103.923 60 L103.923 180 L0 120 Z" fill="#FFFFFF" stroke="#01A1FF" stroke-width="10" stroke-linejoin="round"/>
    <path d="M207.846 0 L103.923 60 L103.923 180 L207.846 120 Z" fill="#01A1FF" stroke="#01A1FF" stroke-width="10" stroke-linejoin="round"/>
    <path d="M103.923 -60 L207.846 0 L103.923 60 L0 0 Z" fill="#FFFFFF" stroke="#01A1FF" stroke-width="10" stroke-linejoin="round"/>
  </g>
  <g class="cube-5">
    <path d="M-103.923 180 L0 240 L0 360 L-103.923 300 Z" fill="#FFFFFF" stroke="#01A1FF" stroke-width="10" stroke-linejoin="round"/>
    <path d="M103.923 180 L0 240 L0 360 L103.923 300 Z" fill="#01A1FF" stroke="#01A1FF" stroke-width="10" stroke-linejoin="round"/>
    <path d="M0 120 L103.923 180 L0 240 L-103.923 180 Z" fill="#FFFFFF" stroke="#01A1FF" stroke-width="10" stroke-linejoin="round"/>
  </g>
</svg>