<svg width="892" height="898" viewBox="0 0 892 898" fill="none" xmlns="http://www.w3.org/2000/svg">
<rect opacity="0.15" y="361" width="892" height="4.99994" fill="url(#paint0_linear_1077_4121)"/>
<rect opacity="0.15" y="532" width="892" height="4.99994" fill="url(#paint1_linear_1077_4121)"/>
<rect opacity="0.15" y="613" width="892" height="4.99994" fill="url(#paint2_linear_1077_4121)"/>
<rect opacity="0.15" y="771" width="892" height="4.99994" fill="url(#paint3_linear_1077_4121)"/>
<rect opacity="0.15" y="142" width="892" height="4.99994" fill="url(#paint4_linear_1077_4121)"/>
<rect opacity="0.15" y="20" width="892" height="4.99994" fill="url(#paint5_linear_1077_4121)"/>
<rect opacity="0.15" x="298" y="6" width="892" height="4.99994" transform="rotate(90 298 6)" fill="url(#paint6_linear_1077_4121)"/>
<rect opacity="0.15" x="348" y="6" width="892" height="4.99994" transform="rotate(90 348 6)" fill="url(#paint7_linear_1077_4121)"/>
<rect opacity="0.15" x="637" width="892" height="4.99994" transform="rotate(90 637 0)" fill="url(#paint8_linear_1077_4121)"/>
<rect opacity="0.15" x="687" width="892" height="4.99994" transform="rotate(90 687 0)" fill="url(#paint9_linear_1077_4121)"/>
<path d="M454 493L557.923 553V673L454 613V493Z" fill="#FAFAFA" stroke="#747E85" stroke-width="10" stroke-linejoin="round"/>
<path d="M661.845 493L557.922 553V673L661.845 613V493Z" fill="#EAEBEC" stroke="#747E85" stroke-width="10" stroke-linejoin="round"/>
<path d="M557.923 433L661.846 493L557.923 553L454 493L557.923 433Z" fill="#D3D7DA" stroke="#747E85" stroke-width="10" stroke-linejoin="round"/>
<path d="M350.078 553L454.001 613V733L350.078 673V553Z" fill="#FAFAFA" stroke="#747E85" stroke-width="10" stroke-linejoin="round"/>
<path d="M557.923 553L454 613V733L557.923 673V553Z" fill="#EAEBEC" stroke="#747E85" stroke-width="10" stroke-linejoin="round"/>
<path d="M454.001 493L557.924 553L454.001 613L350.078 553L454.001 493Z" fill="#D3D7DA" stroke="#747E85" stroke-width="10" stroke-linejoin="round"/>
<path d="M454 133L557.923 193V313L454 253V133Z" fill="#FAFAFA" stroke="#747E85" stroke-width="10" stroke-linejoin="round"/>
<path d="M661.845 133L557.922 193V313L661.845 253V133Z" fill="#EAEBEC" stroke="#747E85" stroke-width="10" stroke-linejoin="round"/>
<path d="M557.923 73L661.846 133L557.923 193L454 133L557.923 73Z" fill="#D3D7DA" stroke="#747E85" stroke-width="10" stroke-linejoin="round"/>
<path d="M246.152 493L350.075 553V673L246.152 613V493Z" fill="#FAFAFA" stroke="#747E85" stroke-width="10" stroke-linejoin="round"/>
<path d="M453.997 493L350.074 553V673L453.997 613V493Z" fill="#EAEBEC" stroke="#747E85" stroke-width="10" stroke-linejoin="round"/>
<path d="M350.075 433L453.998 493L350.075 553L246.152 493L350.075 433Z" fill="#D3D7DA" stroke="#747E85" stroke-width="10" stroke-linejoin="round"/>
<path d="M350.078 193L454.001 253V373L350.078 313V193Z" fill="#FAFAFA" stroke="#747E85" stroke-width="10" stroke-linejoin="round"/>
<path d="M557.923 193L454 253V373L557.923 313V193Z" fill="#EAEBEC" stroke="#747E85" stroke-width="10" stroke-linejoin="round"/>
<path d="M454.001 133L557.924 193L454.001 253L350.078 193L454.001 133Z" fill="#D3D7DA" stroke="#747E85" stroke-width="10" stroke-linejoin="round"/>
<path d="M246.152 373L350.075 433V553L246.152 493V373Z" fill="#FAFAFA" stroke="#747E85" stroke-width="10" stroke-linejoin="round"/>
<path d="M453.997 373L350.074 433V553L453.997 493V373Z" fill="#EAEBEC" stroke="#747E85" stroke-width="10" stroke-linejoin="round"/>
<path d="M350.075 313L453.998 373L350.075 433L246.152 373L350.075 313Z" fill="#D3D7DA" stroke="#747E85" stroke-width="10" stroke-linejoin="round"/>
<defs>
<linearGradient id="paint0_linear_1077_4121" x1="892" y1="366.005" x2="-2.83415e-06" y2="366.005" gradientUnits="userSpaceOnUse">
<stop stop-color="#C8C8C8" stop-opacity="0"/>
<stop offset="0.5"/>
<stop offset="1" stop-color="#77B1F9" stop-opacity="0"/>
</linearGradient>
<linearGradient id="paint1_linear_1077_4121" x1="892" y1="537.005" x2="-2.83415e-06" y2="537.005" gradientUnits="userSpaceOnUse">
<stop stop-color="#C8C8C8" stop-opacity="0"/>
<stop offset="0.5"/>
<stop offset="1" stop-color="#77B1F9" stop-opacity="0"/>
</linearGradient>
<linearGradient id="paint2_linear_1077_4121" x1="892" y1="618.005" x2="-2.83415e-06" y2="618.005" gradientUnits="userSpaceOnUse">
<stop stop-color="#C8C8C8" stop-opacity="0"/>
<stop offset="0.5"/>
<stop offset="1" stop-color="#77B1F9" stop-opacity="0"/>
</linearGradient>
<linearGradient id="paint3_linear_1077_4121" x1="892" y1="776.005" x2="-2.83415e-06" y2="776.005" gradientUnits="userSpaceOnUse">
<stop stop-color="#C8C8C8" stop-opacity="0"/>
<stop offset="0.5"/>
<stop offset="1" stop-color="#77B1F9" stop-opacity="0"/>
</linearGradient>
<linearGradient id="paint4_linear_1077_4121" x1="892" y1="147.005" x2="-2.83415e-06" y2="147.005" gradientUnits="userSpaceOnUse">
<stop stop-color="#C8C8C8" stop-opacity="0"/>
<stop offset="0.5"/>
<stop offset="1" stop-color="#77B1F9" stop-opacity="0"/>
</linearGradient>
<linearGradient id="paint5_linear_1077_4121" x1="892" y1="25.0054" x2="-2.83415e-06" y2="25.0049" gradientUnits="userSpaceOnUse">
<stop stop-color="#C8C8C8" stop-opacity="0"/>
<stop offset="0.5"/>
<stop offset="1" stop-color="#77B1F9" stop-opacity="0"/>
</linearGradient>
<linearGradient id="paint6_linear_1077_4121" x1="1190" y1="11.0054" x2="298" y2="11.0049" gradientUnits="userSpaceOnUse">
<stop stop-color="#C8C8C8" stop-opacity="0"/>
<stop offset="0.5"/>
<stop offset="1" stop-color="#77B1F9" stop-opacity="0"/>
</linearGradient>
<linearGradient id="paint7_linear_1077_4121" x1="1240" y1="11.0054" x2="348" y2="11.0049" gradientUnits="userSpaceOnUse">
<stop stop-color="#C8C8C8" stop-opacity="0"/>
<stop offset="0.5"/>
<stop offset="1" stop-color="#77B1F9" stop-opacity="0"/>
</linearGradient>
<linearGradient id="paint8_linear_1077_4121" x1="1529" y1="5.00543" x2="637" y2="5.00493" gradientUnits="userSpaceOnUse">
<stop stop-color="#C8C8C8" stop-opacity="0"/>
<stop offset="0.5"/>
<stop offset="1" stop-color="#77B1F9" stop-opacity="0"/>
</linearGradient>
<linearGradient id="paint9_linear_1077_4121" x1="1579" y1="5.00543" x2="687" y2="5.00493" gradientUnits="userSpaceOnUse">
<stop stop-color="#C8C8C8" stop-opacity="0"/>
<stop offset="0.5"/>
<stop offset="1" stop-color="#77B1F9" stop-opacity="0"/>
</linearGradient>
</defs>
</svg>
